<?xml version="1.0" encoding="UTF-8"?>
<svg id="Layer_1" xmlns="http://www.w3.org/2000/svg" version="1.1" viewBox="0 0 2475 300">
  <!-- Generator: Adobe Illustrator 29.8.2, SVG Export Plug-In . SVG Version: 2.1.1 Build 3)  -->
  <defs>
    <style>
      .st0 {
        fill: #fff;
      }
    </style>
  </defs>
  <path class="st0" d="M26.8,150c0-63.2,26.7-113.6,85.7-113.6s85.7,50.3,85.7,113.6-26.7,113.6-85.7,113.6S26.8,213.2,26.8,150ZM154,150c0-47.9-14.1-72.8-41.4-72.8s-41.4,24.9-41.4,72.8,14.1,72.8,41.4,72.8,41.4-24.9,41.4-72.8Z"/>
  <path class="st0" d="M345.6,40.7h34.7v218.6h-43V83.4l-58.3,26.4v-39.6l66.6-29.5Z"/>
  <path class="st0" d="M551.9,220.9h81.4v38.4h-138.8v-33.2l51.3-54.3c24.6-26.1,41.1-44.5,41.1-65.1s-12.9-30.4-36.2-30.4-33.5,5.5-48.5,13.8l-16-35.6c19.3-11.7,43-18.1,68.2-18.1,43.9,0,76.4,21.8,76.4,65.1s-19,58.6-48.2,88.1l-30.7,31.3Z"/>
  <path class="st0" d="M864.6,198.5c0,41.8-32.8,65.1-78.9,65.1s-63.2-11.7-81.4-28.9l22.7-31.9c15.4,12.9,35.9,21.5,56.5,21.5s37.1-11.4,37.1-30.4-13.2-27-32.5-27h-30.1v-35.9h22.7c22.4,0,34.4-10.4,34.4-27.3s-13.5-27.6-35-27.6-35.3,6.8-51.3,18.4l-20-32.5c19-15.7,46.1-25.5,74-25.5,43.9,0,75.5,23,75.5,61.4s-8.9,38.1-24.6,48.8c17.2,9.2,30.7,25.8,30.7,51.9Z"/>
  <path class="st0" d="M1075.6,182.5h26.1v37.5h-26.1v39.3h-43v-39.3h-109.6v-31.6l98.2-147.7h54.3v141.8ZM972.7,182.5h59.9v-89.6l-59.9,89.6Z"/>
  <path class="st0" d="M1229.1,124.2c55.9,0,86.6,22.7,86.6,67.2s-30.4,72.1-78.9,72.1-62.9-12.6-79.8-30.1l22.7-30.4c15.4,13.5,35.3,21.2,54,21.2s38.1-12,38.1-32.5-15.4-31.6-42.7-31.6h-57.7V40.7h131.7v38.4h-91.2v45.1h17.2Z"/>
  <path class="st0" d="M1544.6,185.6c0,44.2-35.3,78-82,78s-81.7-31.3-81.7-76.1,6.8-41.4,23.6-67.2l53.1-79.5h46.4l-47.6,71.5c3.7-.9,8-1.2,12.6-1.2,41.8,0,75.5,30.4,75.5,74.6ZM1501.6,185.6c0-22.4-16.3-38.7-38.7-38.7s-38.7,16.3-38.7,39,16.3,38.4,38.7,38.4,38.7-16.6,38.7-38.7Z"/>
  <path class="st0" d="M1610.1,40.7h153.8v31.3l-82,187.3h-45.7l80.7-180.2h-106.8v-38.4Z"/>
  <path class="st0" d="M1994.6,199.1c0,39-34.7,64.5-82.3,64.5s-82-25.5-82-64.5,16-45.4,35-54c-17.8-9.5-29.2-27.3-29.2-47.9,0-37.5,34.4-60.8,76.1-60.8s76.1,23.3,76.1,60.8-11.4,38.4-29.2,47.9c19.3,8.6,35.3,27.3,35.3,54ZM1949.8,194.5c0-20.9-19.3-30.1-37.5-30.1s-37.5,9.2-37.5,30.1,19.6,30.4,37.5,30.4,37.5-9.2,37.5-30.4ZM1878,101.5c0,16.9,15,27.3,34.4,27.3s34.4-10.4,34.4-27.3-15.7-27-34.4-27-34.4,9.5-34.4,27Z"/>
  <path class="st0" d="M2219,112.5c0,22.4-6.8,41.4-23.6,67.2l-52.8,79.5h-46.7l47.6-71.5c-3.7.9-8,1.2-12.6,1.2-41.8,0-75.5-30.4-75.5-74.6s35.3-78,82-78,81.7,31.3,81.7,76.1ZM2175.7,114.1c0-22.4-16.3-38.7-38.7-38.7s-38.7,16.9-38.7,39,16.6,38.7,38.7,38.7,38.7-16.6,38.7-39Z"/>
  <path class="st0" d="M2335.8,236.6c0-14.4,12-26.7,26.7-26.7s26.7,12.3,26.7,26.7-12,27-26.7,27-26.7-12-26.7-27Z"/>
</svg>